<?xml version="1.0" encoding="utf-8"?>
<!-- Generator: Adobe Illustrator 25.2.0, SVG Export Plug-In . SVG Version: 6.00 Build 0)  -->
<svg version="1.1" id="Layer_1" xmlns="http://www.w3.org/2000/svg" xmlns:xlink="http://www.w3.org/1999/xlink" x="0px" y="0px"
	 viewBox="0 0 512 512" style="enable-background:new 0 0 512 512;" xml:space="preserve">
<style type="text/css">
	.st0{fill:url(#SVGID_1_);}
	.st1{opacity:0.25;fill:url(#SVGID_2_);}
	.st2{fill:#F2F2F2;}
</style>
<radialGradient id="SVGID_1_" cx="238.3786" cy="278.5639" r="413.6028" fx="625.7545" fy="133.6252" gradientUnits="userSpaceOnUse">
	<stop  offset="0" style="stop-color:#2D00F7"/>
	<stop  offset="0.1289" style="stop-color:#400BE9"/>
	<stop  offset="0.3892" style="stop-color:#7126C6"/>
	<stop  offset="0.4374" style="stop-color:#7B2CBF"/>
	<stop  offset="0.5398" style="stop-color:#6942BA"/>
	<stop  offset="0.753" style="stop-color:#3C7AAC"/>
	<stop  offset="1" style="stop-color:#02C39A"/>
</radialGradient>
<path class="st0" d="M259.5,449.5c-7,2.8-13.2,1.6-16,1c-5.4-1.1-11-3.7-17-9c-16.2-14.4-22.7-36.9-23-38c-16.6-60.3-2-82.2-19-100
	c-17.9-18.8-42.1-2.1-88-25c-15.5-7.8-26.9-16.7-34-23c-1.7-2.1-8.2-10.6-7-22c0.8-7.9,4.9-13.3,7-16c5-6.4,10.9-9.6,14-11
	c52.1-15,105.3-31.2,159.6-48.6c50.2-16.1,99-32.6,146.4-49.4c12.5-5.6,26.7-1.9,34,8c5.8,7.9,6.5,18.7,2,28
	c-24,47.1-48.1,94.2-72.1,141.3c-36.7,79.7-65,137.6-72.9,150.7C270.8,441,266.6,446.7,259.5,449.5z"/>
<linearGradient id="SVGID_2_" gradientUnits="userSpaceOnUse" x1="81.7495" y1="233.2497" x2="388.0468" y2="233.2497">
	<stop  offset="0" style="stop-color:#64DFDF"/>
	<stop  offset="0.1165" style="stop-color:#42DBBD"/>
	<stop  offset="0.205" style="stop-color:#25D8A1"/>
	<stop  offset="0.2866" style="stop-color:#16CF9E"/>
	<stop  offset="0.3995" style="stop-color:#0BC89C"/>
	<stop  offset="0.5585" style="stop-color:#04C49A"/>
	<stop  offset="1" style="stop-color:#02C39A"/>
</linearGradient>
<path class="st1" d="M82,236c4.2-27.5,60.1-26.5,182-66c70.4-22.8,111.6-42.9,122-29c6.1,8.2-1.9,25.5-18,60
	c-10.3,22.2-11.9,17.2-31,52c-9.1,16.6-20.4,32.1-29,49c-1.1,2.3-4.4,8.7-11,15c0,0-5.8,5.5-13,9c-18.4,9-43.5,0.5-45,0
	c-29.9-10.4-35.8-33.2-63-35c-3.3-0.2-2.6,0.2-11,0c-3.1-0.1-29.8-0.6-42-4C102.3,281.3,79.1,255.1,82,236z"/>
<path class="st2" d="M287.2,181.6c22.2-4.6,42.8-8.5,52.7,2.8c9.1,10.5,3.9,28.4,0.9,38.8c-11.4,39.4-49.1,70.9-64.7,63.7
	c-4.5-2.1-7.6-7.6-11.1-13.9c-6.7-12.1-3.3-16-8.3-22.2c-7-8.6-16.1-3.8-34.2-12.9c-9.8-4.9-16.8-8.4-17.6-13.9
	C202.8,209.1,249.7,189.3,287.2,181.6z"/>
<path class="st2" d="M561,282"/>
<g>
</g>
<g>
</g>
<g>
</g>
<g>
</g>
<g>
</g>
<g>
</g>
<g>
</g>
<g>
</g>
<g>
</g>
<g>
</g>
<g>
</g>
<g>
</g>
<g>
</g>
<g>
</g>
<g>
</g>
</svg>
