<?xml version="1.0" encoding="utf-8"?>
<!-- Generator: Adobe Illustrator 25.2.0, SVG Export Plug-In . SVG Version: 6.00 Build 0)  -->
<svg version="1.1" id="Layer_1" xmlns="http://www.w3.org/2000/svg" xmlns:xlink="http://www.w3.org/1999/xlink" x="0px" y="0px"
	 viewBox="0 0 200 200" style="enable-background:new 0 0 200 200;" xml:space="preserve">
<style type="text/css">
	.st0{fill:#FFFFFF;}
	.st1{fill:#1870FF;}
</style>
<g>
	<ellipse class="st0" cx="80.3" cy="97.8" rx="66.7" ry="67.3"/>
	<path class="st1" d="M80.3,37.5c32.9,0,59.7,27,59.7,60.3s-26.8,60.3-59.7,60.3s-59.7-27-59.7-60.3S47.4,37.5,80.3,37.5 M80.3,23.5
		c-40.7,0-73.7,33.3-73.7,74.3s33,74.3,73.7,74.3s73.7-33.3,73.7-74.3S121.1,23.5,80.3,23.5L80.3,23.5z"/>
</g>
<g>
	<path class="st1" d="M122.7,39.9c32.9,0,59.7,27,59.7,60.3s-26.8,60.3-59.7,60.3s-59.7-27-59.7-60.3S89.7,39.9,122.7,39.9
		 M122.7,25.9c-40.7,0-73.7,33.3-73.7,74.3s33,74.3,73.7,74.3s73.7-33.3,73.7-74.3S163.4,25.9,122.7,25.9L122.7,25.9z"/>
</g>
<g>
</g>
<g>
</g>
<g>
</g>
<g>
</g>
<g>
</g>
<g>
</g>
<g>
</g>
<g>
</g>
<g>
</g>
<g>
</g>
<g>
</g>
<g>
</g>
<g>
</g>
<g>
</g>
<g>
</g>
</svg>
